<?xml version="1.0" encoding="UTF-8" standalone="no" ?>
<!DOCTYPE svg PUBLIC "-//W3C//DTD SVG 1.1//EN" "http://www.w3.org/Graphics/SVG/1.1/DTD/svg11.dtd">
<svg xmlns="http://www.w3.org/2000/svg" xmlns:xlink="http://www.w3.org/1999/xlink" version="1.1" width="350" height="350" viewBox="0 0 350 350" xml:space="preserve">
<desc>Created with Fabric.js 1.7.22</desc>
<defs>
</defs>
<g id="icon" style="stroke: none; stroke-width: 1; stroke-dasharray: none; stroke-linecap: butt; stroke-linejoin: miter; stroke-miterlimit: 10; fill: none; fill-rule: nonzero; opacity: 1;" transform="translate(-1.9444444444444287 -1.9444444444444287) scale(3.89 3.89)" >
	<path d="M 89.893 0.953 c -0.003 -0.008 -0.004 -0.015 -0.007 -0.023 c -0.152 -0.37 -0.447 -0.664 -0.816 -0.816 c -0.007 -0.003 -0.015 -0.004 -0.023 -0.007 C 88.877 0.04 88.694 0 88.5 0 H 69.745 c -0.828 0 -1.5 0.671 -1.5 1.5 s 0.672 1.5 1.5 1.5 h 15.134 L 39.18 48.699 c -0.586 0.586 -0.586 1.535 0 2.121 c 0.293 0.293 0.677 0.439 1.061 0.439 s 0.768 -0.146 1.061 -0.439 L 87 5.121 v 15.134 c 0 0.829 0.672 1.5 1.5 1.5 s 1.5 -0.671 1.5 -1.5 V 1.5 C 90 1.306 89.96 1.123 89.893 0.953 z" style="stroke: none; stroke-width: 1; stroke-dasharray: none; stroke-linecap: butt; stroke-linejoin: miter; stroke-miterlimit: 10; fill: rgb(29,29,27); fill-rule: nonzero; opacity: 1;" transform=" matrix(1 0 0 1 0 0) " stroke-linecap="round" />
	<path d="M 69.26 90 H 11.221 C 5.034 90 0 84.967 0 78.779 V 20.74 C 0 14.553 5.034 9.52 11.221 9.52 H 53.33 c 0.828 0 1.5 0.671 1.5 1.5 s -0.672 1.5 -1.5 1.5 H 11.221 C 6.688 12.52 3 16.208 3 20.74 v 58.039 C 3 83.313 6.688 87 11.221 87 H 69.26 c 4.533 0 8.221 -3.688 8.221 -8.221 V 35.877 c 0 -0.829 0.672 -1.5 1.5 -1.5 s 1.5 0.671 1.5 1.5 v 42.902 C 80.48 84.967 75.447 90 69.26 90 z" style="stroke: none; stroke-width: 1; stroke-dasharray: none; stroke-linecap: butt; stroke-linejoin: miter; stroke-miterlimit: 10; fill: rgb(29,29,27); fill-rule: nonzero; opacity: 1;" transform=" matrix(1 0 0 1 0 0) " stroke-linecap="round" />
</g>
</svg>